<svg xmlns="http://www.w3.org/2000/svg" viewBox="0 0 512 512" id="healthcare"><path fill="#e4222e" d="M250,31.08h0a80.49,80.49,0,0,0-113.84,0h0a80.49,80.49,0,0,0,0,113.84L241.86,250.63a20,20,0,0,0,28.28,0L375.85,144.92a80.49,80.49,0,0,0,0-113.84h0a80.49,80.49,0,0,0-113.84,0h0A8.5,8.5,0,0,1,250,31.08Z"></path><path fill="#c0232c" d="M375.85,31.08h0A80.4,80.4,0,0,0,303.93,8.91a80.07,80.07,0,0,1,41.92,22.17h0a80.49,80.49,0,0,1,0,113.84L241,249.78l.86.85a20,20,0,0,0,28.28,0L375.85,144.92A80.49,80.49,0,0,0,375.85,31.08Z"></path><path fill="#f69531" d="M504.5,469.58V512H330.87V469.57a31.52,31.52,0,0,1,22.32-30.14l15.33-4.68.26-.08,6.82-2.07h0l9.8-3a15.72,15.72,0,0,0,11.16-15.07v-7.18h41.82v7.07a15.76,15.76,0,0,0,11.16,15.07l16.09,4.9.81.25,15.73,4.79A31.52,31.52,0,0,1,504.5,469.58Z"></path><path fill="#f48a31" d="M482.17,439.44l-15.73-4.79-.81-.25-16.09-4.9a15.76,15.76,0,0,1-11.16-15.07v-7.07h-30v7.07a15.76,15.76,0,0,0,11.16,15.07l16.09,4.9.81.25,15.73,4.79a31.52,31.52,0,0,1,22.33,30.14V512h30V469.58A31.52,31.52,0,0,0,482.17,439.44Z"></path><path fill="#fdd8ae" d="M465.63,434.4l0,.25c-2.72,2.71-20.7,20-48.12,18.23C393.61,451.3,379,436.32,375.6,432.6h0l9.8-3a15.75,15.75,0,0,0,11.16-15.07v-7.18h41.82v7.07a15.67,15.67,0,0,0,1.74,7.19,15.73,15.73,0,0,0,9.42,7.88Z"></path><path fill="#57565c" d="M451.41,367.67H383.94l-6.24-26.51a27.1,27.1,0,0,1,26.36-33.37h.41c6.41.08,10.74,1.17,17.76,2.59,3.57.72,7.71,1.5,12.38,2.28a27.17,27.17,0,0,1,22,33Z"></path><path fill="#3c3b41" d="M434.61,312.66c-4.67-.78-8.81-1.56-12.38-2.28-7-1.42-11.35-2.51-17.76-2.59h-.41a27.22,27.22,0,0,0-6.37.72c2.9.47,5.85,1.12,9.54,1.87s7.71,1.5,12.38,2.28a27.17,27.17,0,0,1,22,33q-2.59,11-5.18,22h15q2.59-11,5.18-22A27.17,27.17,0,0,0,434.61,312.66Z"></path><path fill="#fbbf7d" d="M440.12,421.62A33.64,33.64,0,0,1,395,421.4a15.76,15.76,0,0,0,1.57-6.86v-7.18h41.82v7.07A15.67,15.67,0,0,0,440.12,421.62Z"></path><path fill="#fdd8ae" d="M451.34,381.54a33.66,33.66,0,1,1-67.31,0V368.21c-.49-7.09,1-11.6,3.91-14.2,5.64-5.05,13.29,0,20.18-5.18s12.33-6.84,19.39-1.61c7.51,5.57,14.49,1.41,19.92,6.79,2.14,2.12,4.4,6.09,3.91,14.2Z"></path><path fill="#fbbf7d" d="M447.43,354c-5.43-5.38-12.41-1.22-19.92-6.79-5.84-4.33-10.67-3.87-16-.69.33.22.66.44,1,.69,7.51,5.57,14.49,1.41,19.92,6.79,2.14,2.12,4.4,6.09,3.91,14.2v13.33a33.66,33.66,0,0,1-26.15,32.81,33.64,33.64,0,0,0,41.15-32.81V368.21C451.83,360.1,449.57,356.13,447.43,354Z"></path><circle cx="115.5" cy="268.15" r="22.66" fill="#57565c"></circle><path fill="#3c3b41" d="M115.5,245.49a22.71,22.71,0,0,0-7.5,1.27,22.67,22.67,0,0,1,0,42.78,22.66,22.66,0,1,0,7.5-44.05Z"></path><path fill="#57565c" d="M157.45,340c-2.72,23.94-23.89,40.94-45.9,38.93-19.43-1.77-35.84-18-38-38.93q-1.31-5.52-2.6-11.06a45,45,0,0,1,44.82-55.32l1.48,0A45,45,0,0,1,160.05,329Z"></path><path fill="#3c3b41" d="M117.21,273.64l-1.48,0a46,46,0,0,0-7.84.51A45,45,0,0,1,145.05,329l-2.6,11c-2.26,19.88-17.24,35-34.86,38.36a39.73,39.73,0,0,0,4,.57c22,2,43.18-15,45.9-38.93l2.6-11A45,45,0,0,0,117.21,273.64Z"></path><path fill="#fecc30" d="M223.5,461.06V512H7.5V461.05a39.21,39.21,0,0,1,27.77-37.5l19.06-5.82h0L64,414.79l11.37-3.46a19.58,19.58,0,0,0,13.88-18.74v-8.94h52v8.8a19.6,19.6,0,0,0,13.88,18.74l21,6.41,2.05.62,17.51,5.34A39.21,39.21,0,0,1,223.5,461.06Z"></path><path fill="#fdd8ae" d="M176.16,417.6c-3.38,3.37-25.76,24.93-59.87,22.68C86,438.28,67.71,418.93,64,414.79l11.37-3.46a19.58,19.58,0,0,0,13.88-18.74v-8.94h52v8.8a19.6,19.6,0,0,0,13.88,18.74Z"></path><path fill="#fdd8ae" d="M174.23 419.44a83 83 0 0 1-33.65 18.45 39.14 39.14 0 0 1 20.19-14.34zM156 362.15c-3.36 16.85-18.21 47.29-39.46 47.36-22.77.09-37.63-31.17-40.16-49.09-3-21.11 10.54-36 30.46-47.34-.57.32 7.14 7.91 8 8.62 4.93 4.21 11.76 6.67 18.58 7.73 5.76.9 13 1 16.59 5.57C156.17 342.87 157.88 352.73 156 362.15z"></path><path fill="#fbbf7d" d="M150,335c-3.61-4.6-10.83-4.67-16.59-5.57-6.82-1.06-13.65-3.52-18.58-7.73-.83-.71-8.54-8.3-8-8.62a105,105,0,0,0-9.59,6.14c1.24,1.24,2.29,2.24,2.56,2.48,4.93,4.21,11.76,6.67,18.58,7.73,5.76.9,13,1,16.59,5.57,6.19,7.87,7.9,17.73,6,27.15-3,14.87-14.88,40.29-32.22,46.13a24.77,24.77,0,0,0,7.76,1.23c21.25-.07,36.1-30.51,39.46-47.36C157.88,352.73,156.17,342.87,150,335Z"></path><path fill="#57565c" d="M295.25,331.34l-1.12,4.16L218,331.34l-7.15-33C206.24,277.2,221,256.74,241,256.85h.47c7.33.1,12.3,1.45,20.34,3.22,4.09.9,8.83,1.87,14.17,2.84,17.74,3.22,29.3,22,25.18,41Q298.21,317.65,295.25,331.34Z"></path><path fill="#3c3b41" d="M276,262.91c-5.34-1-10.08-1.94-14.17-2.84-8-1.77-13-3.12-20.34-3.22H241a29.08,29.08,0,0,0-6.38.69c3.74.58,7.43,1.48,12.19,2.53,4.09.9,8.83,1.87,14.17,2.84,17.74,3.22,29.3,22,25.18,41q-3,13.69-5.93,27.38l-.9,3.35,14.78.81,1.12-4.16q3-13.68,5.93-27.38C305.3,285,293.74,266.13,276,262.91Z"></path><path fill="#f8be32" d="M223.5,461.06V512H133V461.05a39.21,39.21,0,0,1,27.77-37.5l17.44-5.33,17.51,5.34A39.21,39.21,0,0,1,223.5,461.06Z"></path><path fill="#fbbf7d" d="M174.23,419.44a83,83,0,0,1-33.65,18.45,39.14,39.14,0,0,1,20.19-14.34Z"></path><path fill="#f48a31" d="M379,461.06V512H330.87V469.57a31.52,31.52,0,0,1,22.32-30.14l15.33-4.68.26-.08A39.12,39.12,0,0,1,379,461.06Z"></path><path fill="#1cabe1" d="M364,461.06V512H148V461.05a39.21,39.21,0,0,1,27.77-37.5l18.44-5.63.62-.19h0l21-6.4a19.48,19.48,0,0,0,8.94-5.73c.11-.12.22-.24.32-.37a19.58,19.58,0,0,0,4.62-12.64q1.14-9.36,2.3-18.73a38.56,38.56,0,0,1,14.54-19.67c4-2.73,14-9.51,23.24-5.5,8.06,3.5,13,14,11.47,25.79.22,7.36.4,13.29.48,18a19.51,19.51,0,0,0,4.65,12.67l.37.43a19.6,19.6,0,0,0,8.86,5.64l21,6.41.5.15,19.06,5.81A39.21,39.21,0,0,1,364,461.06Z"></path><path fill="#199ad5" d="M336.22,423.56l-19.06-5.81-.5-.15-21-6.41a19.6,19.6,0,0,1-8.86-5.64l-.37-.43a19.51,19.51,0,0,1-4.65-12.67c-.08-4.68-.26-10.61-.48-18,1.49-11.75-3.41-22.29-11.47-25.79-9.25-4-19.2,2.76-23.23,5.49,3.8,5,5.71,12.39,4.7,20.3.22,7.36.4,13.29.48,18a19.51,19.51,0,0,0,4.65,12.67l.37.43a19.6,19.6,0,0,0,8.86,5.64l21,6.41.5.15,19.06,5.81A39.21,39.21,0,0,1,334,461.06V512h30V461.06A39.21,39.21,0,0,0,336.22,423.56Z"></path><path fill="#fdd8ae" d="M295.63,411.19l-38.7,17.51-62.09-11,21-6.4a19.58,19.58,0,0,0,13.88-18.74c.16-1.28.31-2.55.47-3.83.6-5,1.22-9.93,1.83-14.9a38.56,38.56,0,0,1,14.54-19.67c4-2.73,14-9.51,23.24-5.5,8.06,3.5,13,14,11.47,25.79.17,5.64.31,10.44.41,14.48,0,1.24.05,2.4.07,3.49a19.6,19.6,0,0,0,13.88,18.74Z"></path><path fill="#fbbf7d" d="M281.68,389c-6.78,8.82-15.78,15.19-25.67,15.19s-19-6.47-25.82-15.39c.6-5,1.22-9.93,1.83-14.9a38.56,38.56,0,0,1,14.54-19.67c4-2.73,14-9.51,23.24-5.5,8.06,3.5,13,14,11.47,25.79C281.44,380.12,281.58,384.92,281.68,389Z"></path><path fill="#fdd8ae" d="M294.06,340.64c0,19.73-17,48.51-38.05,48.51s-38-28.78-38-48.51V326.49c-.55-7.52,1.15-12.31,4.43-15.07,6.37-5.35,15,0,22.8-5.49s13.94-7.26,21.91-1.71c8.5,5.91,16.39,1.5,22.52,7.2,2.42,2.26,5,6.47,4.43,15.07Z"></path><path fill="#fbbf7d" d="M289.63,311.42c-6.13-5.7-14-1.29-22.52-7.2-6.22-4.33-11.43-4.14-17.06-1.27a21.3,21.3,0,0,1,2.06,1.27c8.5,5.91,16.39,1.5,22.52,7.2,2.42,2.26,5,6.47,4.43,15.07v14.15c0,17.31-13.13,41.6-30.55,47.28a23.91,23.91,0,0,0,7.5,1.23c21,0,38.05-28.78,38.05-48.51V326.49C294.6,317.89,292.05,313.68,289.63,311.42Z"></path><path fill="#1481c4" d="M255.32 424.13l-27.36 22a7 7 0 0 1-9.66-.85l-24.09-27.38.62-.19h0l21-6.4a19.48 19.48 0 0 0 8.94-5.73zM317.16 417.75L293 445.31a7 7 0 0 1-9.65.84l-27.36-22 30.77-18.58a19.6 19.6 0 0 0 8.86 5.64l21 6.41z"></path><path fill="#1481c4" d="M263.5,431.63V511a6.63,6.63,0,0,1-.07,1H248.57a6.63,6.63,0,0,1-.07-1V431.63a7.5,7.5,0,0,1,15,0Z"></path><path fill="#fff" d="M306.48,113.68H278.39a4.08,4.08,0,0,1-4.07-4.08V81.51a4.07,4.07,0,0,0-4.07-4.07h-28.5a4.07,4.07,0,0,0-4.07,4.07V109.6a4.08,4.08,0,0,1-4.07,4.08H205.52a4.07,4.07,0,0,0-4.07,4.07v28.5a4.07,4.07,0,0,0,4.07,4.07h28.09a4.07,4.07,0,0,1,4.07,4.07v28.09a4.07,4.07,0,0,0,4.07,4.07h28.5a4.07,4.07,0,0,0,4.07-4.07V154.39a4.07,4.07,0,0,1,4.07-4.07h28.09a4.07,4.07,0,0,0,4.07-4.07v-28.5A4.07,4.07,0,0,0,306.48,113.68Z"></path><path fill="#e1e1e3" d="M306.48,113.68H278.39a4.08,4.08,0,0,1-4.07-4.08V81.51a4.07,4.07,0,0,0-4.07-4.07h-28.5a4.07,4.07,0,0,0-4.07,4.07V92.44h17.57a4.07,4.07,0,0,1,4.07,4.07V124.6a4.08,4.08,0,0,0,4.07,4.08h28.09a4.07,4.07,0,0,1,4.07,4.07v17.57h10.93a4.07,4.07,0,0,0,4.07-4.07v-28.5A4.07,4.07,0,0,0,306.48,113.68Z"></path></svg>